{"title":"The.Amateur.1981.Dvdrip.Xvid-OlFa","uid":11200029,"size":1481556948,"categoryP":"video","categoryS":"movies","magnet":"?xt=urn:btih:9309aa0bc87734bee7b1b478c1d00e8da93939e6&amp;dn=The.Amateur.1981.Dvdrip.Xvid-OlFa&amp;tr=udp%3A%2F%2Ftracker.openbittorrent.com%3A80&amp;tr=udp%3A%2F%2Fopen.demonii.com%3A1337&amp;tr=udp%3A%2F%2Ftracker.coppersurfer.tk%3A6969&amp;tr=udp%3A%2F%2Fexodus.desync.com%3A6969","seeders":3,"leechers":2,"uploader":"TvTeam","files":4,"time":1413159272,"description":" &lt;a href=&quot;http://www.torrenting.com&quot; rel=&quot;nofollow&quot; target=&quot;_NEW&quot;&gt;http://www.torrenting.com&lt;/a&gt;\n\nSign up is OPEN - for time being. Come and have fun.\n\n\n....The Amateur 1981 Dvdrip Xvid-OlFa\n\nGenre: Crime | Thriller  -  12 February 1982 (USA)\nIMDB: http://www.imdb.com/title/tt0082005/\nRatings: 5.7/10 from 607 users  \n\nPlot: A researcher for the CIA who convinces his superiors to send him to the \neastern bloc in order to avenge the murder of his wife by enemy agents discovers \na web of deception underneath his wife's death. \n\nDirector: Charles Jarrott\nWriters: Robert Littell (novel), Robert Littell (screenplay), 1 more credit \nStars: John Savage, Christopher Plummer, Marthe Keller \n\nVideo: 720x400 Xvid\nAudio: English MP3\n\nNote: No subtitles or Closed Captions on the DVD or found on web...\n\nSource: NTSC DVD5\nFormat                                   : AVI\nFormat/Info                              : Audio Video Interleave\nFile size                                : 1.37 GiB\nDuration                                 : 1h 51mn\nOverall bit rate                         : 1 755 Kbps\nWriting application                      : VirtualDubMod 1.5.4.1 (build 2178/release)\nWriting library                          : VirtualDubMod build 2178/release\n\nVideo\nID                                       : 0\nFormat                                   : MPEG-4 Visual\nFormat profile                           : Advanced Simple@L5\nFormat settings, BVOP                    : 1\nFormat settings, QPel                    : No\nFormat settings, GMC                     : No warppoints\nFormat settings, Matrix                  : Default (H.263)\nMuxing mode                              : Packed bitstream\nCodec ID                                 : XVID\nCodec ID/Hint                            : XviD\nDuration                                 : 1h 51mn\nBit rate                                 : 1 620 Kbps\nWidth                                    : 720 pixels\nHeight                                   : 400 pixels\nDisplay aspect ratio                     : 16:9\nFrame rate                               : 23.976 fps\nColor space                              : YUV\nChroma subsampling                       : 4:2:0\nBit depth                                : 8 bits\nScan type                                : Progressive\nCompression mode                         : Lossy\nBits/(Pixel*Frame)                       : 0.235\nStream size                              : 1.26 GiB (92%)\nWriting library                          : XviD 1.2.1 (UTC 2008-12-04)\n\nAudio\nID                                       : 1\nFormat                                   : MPEG Audio\nFormat version                           : Version 1\nFormat profile                           : Layer 3\nMode                                     : Joint stereo\nMode extension                           : MS Stereo\nCodec ID                                 : 55\nCodec ID/Hint                            : MP3\nDuration                                 : 1h 51mn\nBit rate mode                            : Constant\nBit rate                                 : 128 Kbps\nChannel(s)                               : 2 channels\nSampling rate                            : 48.0 KHz\nCompression mode                         : Lossy\nStream size                              : 102 MiB (7%)\nAlignment                                : Aligned on interleaves\nInterleave, duration                     : 83 ms (2.00 video frames)\nInterleave, preload duration             : 504 ms\nWriting library                          : LAME3.98r","torrent":{"xt":"urn:btih:9309aa0bc87734bee7b1b478c1d00e8da93939e6","amp;dn":"The.Amateur.1981.Dvdrip.Xvid-OlFa","amp;tr":["udp%3A%2F%2Ftracker.openbittorrent.com%3A80","udp%3A%2F%2Fopen.demonii.com%3A1337","udp%3A%2F%2Ftracker.coppersurfer.tk%3A6969","udp%3A%2F%2Fexodus.desync.com%3A6969"],"infoHash":"9309aa0bc87734bee7b1b478c1d00e8da93939e6","infoHashBuffer":{"type":"Buffer","data":[147,9,170,11,200,119,52,190,231,177,180,120,193,208,14,141,169,57,57,230]},"announce":[],"urlList":[]}}